<svg width="353" height="224" viewBox="0 0 353 224" fill="none" xmlns="http://www.w3.org/2000/svg">
<path d="M352.691 21.7418V202.802C352.691 214.449 343.24 223.9 331.593 223.9H21.0976C9.4504 223.91 0 214.46 0 202.812V21.7418C0 10.0946 9.4504 0.644226 21.0976 0.644226H331.593C335.759 0.644226 339.655 1.85661 342.929 3.96016C348.815 7.69058 352.691 14.2603 352.691 21.7418Z" fill="url(#paint0_linear_3_207)"/>
<path d="M59.0857 59.3465H30.8174C29.0248 59.3465 27.5533 57.8751 27.5533 56.0824V35.1403C27.5533 33.3476 29.0248 31.8761 30.8174 31.8761H59.0857C60.8784 31.8761 62.3499 33.3476 62.3499 35.1403V56.0824C62.3602 57.8855 60.8888 59.3465 59.0857 59.3465Z" fill="#F6C859"/>
<path d="M40.9518 55.6886C40.8067 55.6886 40.6616 55.6057 40.5891 55.471C40.4854 55.2742 40.5684 55.0255 40.7652 54.9322C41.3455 54.6317 42.1434 54.0721 42.5994 53.0981C43.1796 51.865 43.0346 50.5282 42.7859 50.4142C42.7237 50.3832 42.475 50.5075 42.3299 50.5904C41.9465 50.7873 41.4284 51.0567 40.817 50.8391C40.216 50.6318 39.9259 50.1034 39.7912 49.8443C38.8793 48.176 38.5995 43.8238 39.5632 41.6581C39.8844 40.9431 40.3197 40.5183 40.8585 40.3939C41.4077 40.2696 41.8533 40.4975 42.216 40.6841C42.5165 40.8395 42.6615 40.9017 42.7548 40.8499C43.1278 40.6219 43.1175 39.2437 42.5994 38.1453C42.1434 37.1712 41.3455 36.6117 40.7652 36.3112C40.5684 36.2075 40.4854 35.9692 40.5891 35.7723C40.6927 35.5754 40.931 35.4926 41.1279 35.5962C41.8222 35.9485 42.7652 36.622 43.3247 37.793C43.8739 38.9536 44.133 40.9535 43.1693 41.5338C42.6823 41.8239 42.216 41.5856 41.8429 41.3991C41.5631 41.254 41.2937 41.1193 41.0347 41.1814C40.6823 41.2643 40.4336 41.6685 40.2886 42.0001C39.4492 43.886 39.6876 47.9998 40.4855 49.4713C40.6202 49.72 40.786 49.9894 41.0657 50.093C41.3352 50.1863 41.5942 50.0723 41.9569 49.8858C42.3092 49.7096 42.703 49.5024 43.1278 49.7096C44.0294 50.1448 43.9672 52.0929 43.3144 53.4711C42.7548 54.6421 41.8118 55.3156 41.1176 55.6679C41.0761 55.6679 41.0139 55.6886 40.9518 55.6886Z" fill="#7D662D"/>
<path d="M39.7394 42.3835H32.4858C32.2682 42.3835 32.0816 42.2073 32.0816 41.9794C32.0816 41.7514 32.2578 41.5752 32.4858 41.5752H39.7394C39.957 41.5752 40.1435 41.7514 40.1435 41.9794C40.1435 42.2073 39.9673 42.3835 39.7394 42.3835Z" fill="#7D662D"/>
<path d="M39.7394 49.6371H32.4858C32.2682 49.6371 32.0816 49.4609 32.0816 49.2329C32.0816 49.0153 32.2578 48.8288 32.4858 48.8288H39.7394C39.957 48.8288 40.1435 49.005 40.1435 49.2329C40.1435 49.4609 39.9673 49.6371 39.7394 49.6371Z" fill="#7D662D"/>
<path d="M49.4177 55.6887C49.3556 55.6887 49.2934 55.6783 49.2312 55.6472C48.5369 55.2949 47.594 54.6214 47.0344 53.4504C46.3816 52.0722 46.3194 50.1345 47.2209 49.6889C47.6458 49.4817 48.0396 49.6889 48.3919 49.8651C48.7545 50.0516 49.0136 50.1656 49.283 50.0723C49.5835 49.9687 49.7597 49.6475 49.8633 49.4506C50.6716 47.9791 50.9099 43.8757 50.0602 41.9794C49.9151 41.6581 49.6664 41.2436 49.3141 41.1607C49.0965 41.1089 48.9618 40.8913 49.0136 40.6737C49.0654 40.4561 49.283 40.3214 49.5006 40.3732C50.0395 40.4976 50.4747 40.9224 50.7959 41.6478C51.7596 43.8031 51.4798 48.1553 50.5679 49.834C50.4332 50.093 50.1327 50.6215 49.5421 50.8288C48.9307 51.036 48.4126 50.7769 48.0292 50.5801C47.8841 50.5075 47.6354 50.3832 47.5732 50.4039C47.3349 50.5179 47.1795 51.8546 47.7598 53.0877C48.2157 54.0618 49.0136 54.6214 49.5939 54.9219C49.7908 55.0255 49.8737 55.2638 49.77 55.4607C49.6975 55.6058 49.5628 55.6887 49.4177 55.6887Z" fill="#7D662D"/>
<path d="M47.8012 40.7773C47.6354 40.7773 47.48 40.6737 47.4178 40.4975C46.5577 37.907 48.5784 35.907 49.2312 35.5755C49.4281 35.4718 49.6768 35.5547 49.77 35.7516C49.8737 35.9485 49.7908 36.1972 49.5939 36.2904C49.3037 36.4355 47.4489 38.0313 48.1846 40.2385C48.2571 40.4457 48.1432 40.6737 47.9255 40.7462C47.8841 40.767 47.8426 40.7773 47.8012 40.7773Z" fill="#7D662D"/>
<path d="M57.8733 42.3835H50.6197C50.4021 42.3835 50.2156 42.2073 50.2156 41.9794C50.2156 41.7514 50.3918 41.5752 50.6197 41.5752H57.8733C58.0909 41.5752 58.2775 41.7514 58.2775 41.9794C58.2775 42.2073 58.1013 42.3835 57.8733 42.3835Z" fill="#7D662D"/>
<path d="M57.8733 49.6371H50.6197C50.4021 49.6371 50.2156 49.4609 50.2156 49.2329C50.2156 49.0153 50.3918 48.8288 50.6197 48.8288H57.8733C58.0909 48.8288 58.2775 49.005 58.2775 49.2329C58.2775 49.4609 58.1013 49.6371 57.8733 49.6371Z" fill="#7D662D"/>
<defs>
<linearGradient id="paint0_linear_3_207" x1="112.393" y1="276.606" x2="198.19" y2="56.1543" gradientUnits="userSpaceOnUse">
<stop stop-color="#93278F"/>
<stop offset="1" stop-color="#29ABE2"/>
</linearGradient>
</defs>
</svg>
