<svg width="1011" height="638" viewBox="0 0 1011 638" fill="none" xmlns="http://www.w3.org/2000/svg">
<g clip-path="url(#clip0_743_3647)">
<rect width="1011" height="637.5" rx="44" fill="#6200EA"/>
<path d="M1139.46 491.537L848.786 550.37L841.081 898.879" stroke="#311B92" stroke-width="80"/>
<path d="M1067.06 320.065L673.912 408.401L657.882 1006.54" stroke="#311B92" stroke-width="80"/>
<path d="M-233.002 96.388L57.6683 37.5551L65.3736 -310.954" stroke="#311B92" stroke-width="80"/>
<path d="M-160.609 267.861L232.543 179.525L248.572 -418.613" stroke="#311B92" stroke-width="80"/>
<path fill-rule="evenodd" clip-rule="evenodd" d="M772.375 95.5946C771.43 97.0327 770.952 98.7276 771.004 100.448V100.447C771.004 105.555 774.252 108.11 778.419 108.125C779.967 108.214 781.513 107.937 782.932 107.315C784.35 106.693 785.602 105.743 786.585 104.544C787.322 105.805 788.286 106.919 789.427 107.829C789.61 107.931 789.819 107.976 790.027 107.956C790.236 107.936 790.435 107.853 790.596 107.718L790.611 107.726C791.598 106.859 793.388 105.296 794.405 104.46C794.492 104.375 794.561 104.274 794.609 104.162C794.656 104.05 794.682 103.931 794.682 103.809C794.683 103.688 794.66 103.566 794.615 103.454C794.569 103.341 794.501 103.24 794.415 103.153C793.239 101.924 792.574 100.294 792.552 98.5922V90.9213C792.552 90.6623 792.553 90.4051 792.555 90.1497V90.1494V90.149V90.1487V90.1483V90.148V90.1477C792.571 87.2039 792.587 84.5137 790.376 82.4553C788.261 80.7726 785.613 79.9045 782.912 80.0083C778.202 80.0083 772.95 81.7477 771.84 87.5349C771.819 87.6512 771.82 87.7718 771.844 87.8877C771.869 88.0036 771.917 88.1131 771.985 88.2098C772.054 88.3064 772.141 88.3873 772.242 88.449C772.343 88.5107 772.457 88.5512 772.573 88.5679L777.389 89.0797C777.609 89.041 777.811 88.9332 777.964 88.771C778.119 88.609 778.216 88.4008 778.243 88.179C778.438 87.2875 778.948 86.497 779.681 85.9539C780.414 85.4108 781.319 85.1529 782.226 85.227C782.758 85.2019 783.287 85.3047 783.769 85.5276C784.253 85.7505 784.674 86.0865 785.001 86.5072C785.545 87.6088 785.753 88.8468 785.6 90.066V90.6994C785.116 90.7557 784.608 90.8085 784.083 90.8628C781.498 91.1309 778.526 91.439 776.287 92.414C774.686 93.0457 773.321 94.1566 772.375 95.5946ZM895.616 80.2382C888.454 80.2382 884.482 86.3537 884.481 94.206C884.482 102.017 888.4 108.287 895.616 108.293C902.548 108.293 906.941 102.18 906.941 94.4787C906.961 86.5074 902.973 80.2382 895.616 80.2382ZM871.669 123.604C872.797 120.823 875.303 114.583 874.12 113.066C872.956 111.576 866.493 112.328 863.43 112.685L863.272 112.703C862.359 112.811 862.226 112.019 863.041 111.452C868.36 107.742 877.075 108.814 878.085 110.062C879.095 111.31 877.828 120.008 872.827 124.144C872.617 124.337 872.35 124.452 872.067 124.471C871.673 124.474 871.449 124.142 871.67 123.599L871.669 123.604ZM793.901 111.972C793.032 111.191 793.809 110.123 794.859 110.74C807.667 118.015 822.144 121.831 836.87 121.815C847.876 121.764 858.765 119.551 868.919 115.298C870.493 114.643 871.8 116.34 870.266 117.469C860.971 124.282 847.499 127.91 835.894 127.91C820.407 127.995 805.44 122.315 793.901 111.972ZM891.776 93.4123L891.776 93.5049V93.505C891.776 96.6267 891.775 103.084 895.617 103.084C899.468 103.084 899.651 97.774 899.636 94.5348C899.718 92.2777 899.468 90.02 898.895 87.8355C898.739 87.1061 898.326 86.4578 897.732 86.0088C897.137 85.5596 896.4 85.3414 895.657 85.3927C892.013 85.3941 891.776 90.3197 891.776 93.4069V93.4123ZM778.248 99.5931C778.248 101.722 779.354 103.157 781.256 103.157C781.975 103.127 782.672 102.904 783.274 102.512C783.876 102.119 784.363 101.571 784.68 100.925C785.477 99.3083 785.799 97.4973 785.609 95.7042V94.6431C782.024 94.6362 778.243 95.3961 778.243 99.5863L778.248 99.5931ZM837.292 95.5866C836.347 97.026 835.87 98.7229 835.926 100.444L835.921 100.438C835.921 105.552 839.16 108.11 843.33 108.125C844.876 108.213 846.42 107.935 847.838 107.313C849.257 106.691 850.509 105.742 851.491 104.544C852.23 105.804 853.193 106.918 854.332 107.829C854.518 107.929 854.727 107.973 854.936 107.952C855.145 107.932 855.343 107.848 855.505 107.714L855.513 107.722C856.504 106.856 858.297 105.29 859.303 104.456C859.389 104.372 859.459 104.272 859.508 104.161C859.556 104.05 859.582 103.93 859.584 103.809C859.586 103.688 859.564 103.568 859.519 103.455C859.476 103.343 859.409 103.24 859.324 103.153C858.154 101.921 857.492 100.292 857.472 98.5922V90.9213C857.472 90.6684 857.473 90.417 857.474 90.1675L857.474 90.1645C857.49 87.2142 857.505 84.5176 855.286 82.4553C853.173 80.7731 850.526 79.9049 847.829 80.0084C843.119 80.0084 837.851 81.7477 836.757 87.5349C836.733 87.6516 836.733 87.7725 836.757 87.8891C836.783 88.0057 836.831 88.1154 836.9 88.2124C836.969 88.3095 837.058 88.3918 837.159 88.453C837.262 88.5142 837.375 88.5526 837.494 88.568L842.289 89.0798C842.512 89.0434 842.717 88.9361 842.873 88.7738C843.029 88.6115 843.127 88.4025 843.156 88.179C843.349 87.2874 843.859 86.4972 844.59 85.9539C845.323 85.4106 846.227 85.1524 847.135 85.227C847.665 85.2013 848.194 85.3046 848.677 85.5276C849.159 85.7507 849.58 86.0861 849.906 86.5072C850.455 87.607 850.666 88.846 850.513 90.066V90.6928C850.043 90.7466 849.549 90.7971 849.04 90.8492C846.442 91.1153 843.451 91.4215 841.203 92.4033C839.603 93.0356 838.236 94.1472 837.292 95.5866ZM843.148 99.5931C843.148 101.722 844.261 103.157 846.166 103.157C846.884 103.125 847.58 102.902 848.18 102.509C848.781 102.116 849.266 101.57 849.583 100.925C850.38 99.3083 850.703 97.4973 850.513 95.7042V94.6431C846.923 94.6362 843.143 95.3961 843.143 99.5863L843.148 99.5931ZM862.569 102.545V106.212L862.563 106.207C862.57 106.436 862.659 106.654 862.815 106.822C862.971 106.989 863.181 107.096 863.409 107.12C863.519 107.119 863.627 107.09 863.724 107.035C866.381 105.669 869.324 104.955 872.312 104.951C875.299 104.947 878.245 105.653 880.906 107.013C881.04 107.067 881.186 107.087 881.328 107.072C881.472 107.056 881.61 107.004 881.728 106.922C881.846 106.84 881.944 106.73 882.009 106.601C882.075 106.472 882.108 106.329 882.103 106.184V102.327C882.094 102.038 882.008 101.755 881.855 101.509C881.702 101.264 881.486 101.063 881.231 100.927C878.368 99.4501 875.164 98.766 871.949 98.9464L880.391 86.983C881.177 85.906 881.621 85.2337 881.621 84.7151V81.6186C881.624 81.4955 881.6 81.3744 881.553 81.2605C881.506 81.1468 881.436 81.0429 881.348 80.9571C881.259 80.8715 881.155 80.8044 881.04 80.7608C880.924 80.7171 880.801 80.6977 880.678 80.7033H864.411C864.291 80.699 864.169 80.7203 864.057 80.7647C863.944 80.8092 863.841 80.8767 863.755 80.9626C863.669 81.0484 863.602 81.1502 863.557 81.2633C863.512 81.3762 863.492 81.4973 863.496 81.6186V85.2336C863.493 85.3562 863.516 85.4772 863.563 85.5905C863.609 85.7038 863.679 85.806 863.768 85.8911C863.855 85.9762 863.959 86.0434 864.074 86.0863C864.189 86.1291 864.312 86.1477 864.435 86.141H872.936L863.165 100.066C862.723 100.815 862.517 101.678 862.569 102.545ZM925.068 107.774C924.854 107.76 924.651 107.674 924.492 107.529C924.334 107.383 924.228 107.188 924.195 106.975V93.2586C924.195 93.0408 924.198 92.815 924.2 92.5838V92.5828C924.224 89.8828 924.255 86.455 921.11 86.455C920.49 86.4794 919.888 86.6837 919.378 87.0417C918.87 87.3998 918.474 87.8971 918.24 88.4743C917.623 89.992 917.354 91.6284 917.45 93.264V106.856C917.446 106.98 917.418 107.103 917.368 107.216C917.317 107.329 917.245 107.431 917.154 107.517C917.064 107.602 916.959 107.669 916.843 107.713C916.727 107.757 916.604 107.778 916.481 107.774H911.56C911.322 107.764 911.095 107.665 910.93 107.494C910.763 107.323 910.668 107.095 910.663 106.856L910.658 81.5933C910.686 81.3618 910.8 81.1491 910.976 80.9972C911.154 80.8455 911.381 80.7658 911.614 80.7728H916.204C916.408 80.7809 916.605 80.8531 916.765 80.9812C916.925 81.1093 917.038 81.2857 917.092 81.4837V85.3418H917.17C918.549 81.8919 920.502 80.2422 923.915 80.2422C925.055 80.1891 926.19 80.4368 927.205 80.9599C928.221 81.4829 929.082 82.2637 929.703 83.2237C931 85.2469 931 88.6359 931 91.0794V91.087V106.986C930.96 107.211 930.843 107.414 930.668 107.561C930.493 107.707 930.271 107.786 930.045 107.785L925.068 107.774ZM825.08 107.48C825.244 107.65 825.467 107.751 825.704 107.764H830.641C830.764 107.767 830.887 107.745 831.002 107.701C831.115 107.657 831.22 107.589 831.309 107.504C831.398 107.42 831.469 107.319 831.518 107.206C831.569 107.094 831.596 106.973 831.599 106.85L831.605 90.9119C831.605 90.5245 831.611 90.1292 831.618 89.73C831.657 87.3419 831.699 84.815 830.358 82.9965C829.554 81.9879 828.498 81.2082 827.297 80.738C826.096 80.2676 824.793 80.1228 823.518 80.317C822.243 80.5112 821.042 81.0379 820.035 81.8445C819.029 82.6511 818.252 83.7089 817.784 84.9115C816.4 81.7271 814.458 80.2341 811.358 80.2341C809.907 80.1781 808.478 80.6073 807.298 81.4542C806.117 82.3012 805.252 83.5177 804.838 84.9115H804.753V81.616C804.734 81.3887 804.631 81.1764 804.464 81.0199C804.299 80.8635 804.082 80.7736 803.855 80.7674H799.24C799.117 80.7641 798.994 80.7861 798.881 80.8302C798.766 80.8743 798.66 80.9406 798.572 81.0253C798.483 81.1099 798.412 81.2109 798.362 81.3233C798.312 81.4356 798.286 81.556 798.283 81.6788V106.934C798.305 107.156 798.408 107.364 798.57 107.517C798.733 107.669 798.946 107.757 799.169 107.764H804.124C804.247 107.767 804.369 107.745 804.484 107.701C804.598 107.657 804.704 107.59 804.792 107.506C804.881 107.421 804.952 107.32 805.002 107.208C805.051 107.095 805.078 106.975 805.082 106.852V93.4604C805.082 93.3516 805.082 93.2411 805.082 93.1295C805.077 90.2433 805.07 86.4992 808.491 86.4992C811.656 86.4992 811.603 89.853 811.561 92.5778C811.556 92.8817 811.552 93.1777 811.552 93.4604V106.85C811.557 107.087 811.653 107.313 811.82 107.483C811.985 107.653 812.209 107.753 812.446 107.764H817.391C817.513 107.767 817.636 107.745 817.751 107.701C817.866 107.657 817.97 107.591 818.058 107.506C818.147 107.421 818.218 107.319 818.269 107.206C818.318 107.094 818.345 106.973 818.348 106.85V93.4604C818.24 91.8333 818.395 90.1994 818.806 88.6213C819.044 88.0249 819.45 87.5112 819.976 87.1433C820.501 86.7753 821.124 86.5698 821.765 86.5512C822.438 86.4553 823.121 86.6292 823.667 87.0363C824.212 87.4436 824.574 88.0506 824.676 88.7242C824.84 90.2972 824.885 91.8804 824.812 93.4604V106.85C824.819 107.086 824.915 107.311 825.08 107.48Z" fill="white"/>
<path opacity="0.4" d="M883 556.911C909.509 556.911 931 535.42 931 508.911C931 482.4 909.509 460.911 883 460.911C856.491 460.911 835 482.4 835 508.911C835 535.42 856.491 556.911 883 556.911Z" fill="white"/>
<path opacity="0.859468" d="M823.267 556.911C849.777 556.911 871.267 535.42 871.267 508.911C871.267 482.4 849.777 460.911 823.267 460.911C796.757 460.911 775.267 482.4 775.267 508.911C775.267 535.42 796.757 556.911 823.267 556.911Z" fill="white"/>
</g>
<defs>
<clipPath id="clip0_743_3647">
<rect width="1011" height="637.5" rx="44" fill="white"/>
</clipPath>
</defs>
</svg>
