<svg width="1011" height="638" viewBox="0 0 1011 638" fill="none" xmlns="http://www.w3.org/2000/svg">
<g clip-path="url(#clip0_743_3662)">
<rect width="1011" height="637.5" rx="44" fill="#455A64" fill-opacity="0.73"/>
<g opacity="0.1">
<path d="M12.2266 621.672C4.10641 627.097 -4.1912 628.161 -12.2405 621.92C-20.2544 615.715 -20.9989 607.276 -17.9139 596.886C-28.41 599.155 -37.8777 599.085 -44.1186 589.723C-49.4375 581.709 -48.1611 573.837 -42.9131 566.284C-42.2748 565.646 -41.6009 565.008 -40.9626 564.37C-37.2039 561.675 -32.8425 559.051 -28.481 559.937C-20.5026 561.533 -21.9564 557.845 -21.5309 552.207C-20.9281 544.441 -21.7792 541.25 -30.4667 542.491C-33.6226 542.952 -37.2748 540.115 -40.7144 538.803C-41.6363 537.881 -42.5584 536.959 -43.4803 536.038C-48.0901 528.307 -49.5084 520.4 -43.9058 512.599C-37.7004 503.911 -28.9064 503.167 -18.1267 506.074C-20.8571 495.436 -20.4671 486.11 -11.1058 479.941C-3.12738 474.657 4.7445 476.004 12.2619 481.217C12.9002 481.855 13.5386 482.529 14.1769 483.167C15.7016 486.926 19.0347 491.004 18.4673 494.443C16.9071 503.663 21.3042 501.996 27.6869 502.528C35.3816 503.167 36.0198 501.074 35.8071 494.514C35.7007 490.791 38.6085 486.997 40.1687 483.238C40.8425 482.529 41.516 481.855 42.1897 481.146C50.2391 475.473 58.5366 474.515 66.6214 480.685C74.6707 486.82 75.6282 495.224 72.5078 505.542C82.7556 503.769 92.3296 503.344 98.5704 512.776C103.889 520.79 102.684 528.626 97.613 536.286C96.8329 537.066 96.0528 537.81 95.2727 538.59C91.4431 540.08 87.4361 543.165 83.8547 542.739C76.0536 541.853 76.1246 544.619 76.231 551.25C76.3374 557.668 75.9472 560.753 83.8547 559.866C87.4715 559.476 91.4431 562.561 95.2727 564.05C96.0528 564.83 96.8683 565.611 97.6485 566.426C103.038 574.476 104.102 582.773 97.8967 590.787C91.7622 598.73 83.4647 600.007 73.075 596.602C75.2026 607.311 74.8481 617.098 64.9194 623.268C57.3311 627.984 49.7782 626.707 42.5445 622.062C41.5516 621.069 40.5941 620.112 39.6013 619.119C35.7716 613.446 34.7788 607.134 35.8426 600.538C24.9565 599.297 15.9143 599.616 17.0136 614.048C17.1554 615.786 15.2407 617.665 14.2479 619.474C13.645 620.218 12.9358 620.963 12.2266 621.672ZM64.3874 588.447C58.1466 584.652 71.2666 572.738 57.331 572.703C50.2037 572.667 48.5724 575.114 48.6079 581.674C48.7143 595.468 60.4514 582.418 64.3874 588.447ZM-9.54555 588.624C-5.71592 583.376 8.21972 595.787 5.80848 578.802C3.89367 565.292 -4.72317 575.93 -9.43928 572.454C-7.52447 578.057 -9.58101 582.773 -9.54555 588.624ZM64.8484 514.478C48.3597 516.18 48.7499 516.251 48.2889 520.081C46.6578 533.378 56.6929 528.839 64.5294 530.931C62.1891 524.761 63.9974 519.726 64.8484 514.478ZM-9.68731 513.769C-8.76536 519.762 -8.1981 524.939 -9.12005 530.719C-4.58123 526.641 4.53178 536.711 6.092 523.308C7.97135 506.748 -5.99952 519.903 -9.68731 513.769ZM20.914 550.328C21.1977 553.874 18.5384 558.873 25.7367 557.49C29.389 556.781 34.1051 559.37 33.4668 551.782C33.0413 546.64 32.7932 544.619 26.8714 545.009C22.439 545.257 19.2474 544.831 20.914 550.328Z" fill="white"/>
<path d="M39.7077 619.12C40.7006 620.112 41.6578 621.105 42.6507 622.063C43.1826 624.048 43.7145 626.034 44.2464 628.055C46.4803 636.53 45.1329 644.083 37.6155 649.296C30.7009 654.083 23.2898 653.976 16.4815 649.012C9.10596 643.622 7.9359 636.034 10.3826 627.63C10.95 625.644 11.5883 623.658 12.1911 621.673C12.9003 620.928 13.6094 620.219 14.3541 619.474C22.758 615.928 31.1974 616.035 39.7077 619.12Z" fill="white"/>
<path d="M127.789 606.496C128.002 615.893 119.527 624.368 110.131 624.191C101.23 624.013 93.252 616.07 93.0747 607.17C92.8619 597.738 101.301 589.299 110.733 589.511C119.634 589.653 127.577 597.56 127.789 606.496Z" fill="white"/>
<path d="M99.9886 634.331C100.13 643.693 91.6202 652.096 82.2589 651.848C73.3586 651.6 65.4865 643.657 65.3801 634.757C65.2383 625.36 73.7131 616.992 83.1099 617.24C92.0457 617.488 99.8823 625.431 99.9886 634.331Z" fill="white"/>
<path d="M193.53 644.579C187.431 643.693 183.46 640.395 183.779 633.941C184.062 628.232 187.785 624.616 193.565 624.687C199.948 624.793 203.707 628.693 203.423 635.076C203.175 640.892 199.345 643.906 193.53 644.579Z" fill="white"/>
<path d="M152.894 634.864C151.511 643.374 146.831 648.657 138.108 649.083C130.2 649.473 122.576 641.317 123.64 633.552C124.846 625.041 130.164 619.652 138.852 620.113C147.433 620.538 151.972 626.353 152.894 634.864Z" fill="white"/>
<path d="M228.99 606.638C228.671 611.461 226.224 614.333 221.26 614.368C216.934 614.368 214.203 611.922 213.849 607.666C213.459 602.844 215.87 599.617 220.834 599.298C225.763 598.979 228.423 601.709 228.99 606.638Z" fill="white"/>
<path d="M97.7194 566.427C96.9393 565.647 96.1238 564.867 95.3437 564.051C91.6913 555.576 91.7623 547.066 95.3437 538.591C96.1238 537.811 96.9038 537.067 97.6839 536.287C100.45 535.436 103.145 534.372 105.982 533.804C113.995 532.28 120.91 534.23 125.52 541.357C129.739 547.882 129.739 554.726 125.555 561.25C120.981 568.413 114.066 570.363 106.052 568.838C103.18 568.342 100.485 567.278 97.7194 566.427Z" fill="white"/>
<path d="M138.144 595.22C128.392 594.369 122.683 589.262 122.187 579.369C121.726 569.937 129.385 562.42 138.818 563.129C148.675 563.874 154.243 569.618 154.065 579.44C153.888 589.333 147.86 594.404 138.144 595.22Z" fill="white"/>
<path d="M166.262 620.29C157.397 619.474 152.539 615.077 152.645 606.638C152.787 598.198 157.681 593.482 166.085 593.588C174.524 593.695 179.169 598.624 179.134 607.028C179.098 615.573 173.886 619.545 166.262 620.29Z" fill="white"/>
<path d="M193.531 591.142C185.943 589.653 181.262 585.504 181.936 578.199C182.574 571.108 187.468 566.675 194.843 567.42C201.439 568.093 205.623 572.668 205.41 579.37C205.127 586.71 200.127 590.256 193.531 591.142Z" fill="white"/>
<path d="M230.09 551.144C229.523 556.782 226.615 560.008 221.26 559.973C215.906 559.902 212.715 556.64 212.75 551.285C212.821 545.931 216.084 542.739 221.438 542.775C226.828 542.81 229.558 546.215 230.09 551.144Z" fill="white"/>
<path d="M109.457 513.202C100.06 512.6 92.2593 503.557 93.1813 494.338C94.1032 485.402 102.578 478.062 111.372 478.629C120.769 479.232 128.605 488.274 127.648 497.494C126.726 506.43 118.251 513.734 109.457 513.202Z" fill="white"/>
<path d="M137.896 539.761C128.109 538.733 122.506 533.52 122.187 523.627C121.903 514.195 129.704 506.819 139.137 507.67C148.994 508.592 154.42 514.478 154.1 524.265C153.71 534.158 147.541 539.087 137.896 539.761Z" fill="white"/>
<path d="M166.9 536.747C174.666 537.988 179.949 542.669 180.41 551.392C180.836 559.264 172.68 566.959 164.95 565.895C156.44 564.725 151.44 559.441 151.334 550.718C151.263 543.272 158.816 536.535 166.9 536.747Z" fill="white"/>
<path d="M205.586 523.237C204.877 530.293 201.154 535.222 193.849 535.364C186.58 535.506 181.97 530.825 181.864 523.556C181.793 516.854 186.19 512.351 192.75 511.925C200.09 511.394 204.204 515.968 205.586 523.237Z" fill="white"/>
<path d="M229.026 495.118C228.672 500.578 226.225 503.451 221.225 503.451C216.899 503.451 214.169 501.004 213.814 496.749C213.424 491.926 215.835 488.735 220.8 488.38C225.87 487.99 228.282 491.004 229.026 495.118Z" fill="white"/>
<path d="M166.298 482.565C174.809 483.452 179.454 488.132 179.028 496.643C178.603 505.259 173.213 509.55 164.809 509.053C156.902 508.592 152.576 503.664 152.682 495.792C152.824 487.14 157.894 482.991 166.298 482.565Z" fill="white"/>
<path d="M192.998 478.133C187.077 476.892 183.211 473.417 183.921 467.069C184.523 461.538 188.389 457.956 194.098 458.417C200.338 458.878 203.991 462.956 203.317 469.268C202.75 474.835 198.814 477.778 192.998 478.133Z" fill="white"/>
<path d="M99.9887 468.239C99.9533 477.636 91.3366 485.898 81.9753 485.472C73.0395 485.047 65.3448 476.998 65.3802 468.097C65.4157 458.7 74.0679 450.438 83.3937 450.864C92.3295 451.289 100.024 459.374 99.9887 468.239Z" fill="white"/>
<path d="M14.2123 483.203C13.574 482.565 12.9356 481.891 12.2973 481.252C12.1909 480.437 12.2974 479.515 11.9783 478.806C7.79408 469.551 7.65228 460.792 16.2335 454.055C23.219 448.559 31.091 448.523 38.1474 453.984C46.7995 460.686 46.6577 469.444 42.5799 478.699C42.2607 479.444 42.3315 480.331 42.2251 481.146C41.5514 481.855 40.8777 482.529 40.2039 483.238C31.5163 486.749 22.8644 486.642 14.2123 483.203Z" fill="white"/>
<path d="M110.201 425.759C118.783 426.787 124.633 431.362 124.811 440.12C124.988 448.879 119.456 454.588 110.733 454.765C101.975 454.978 96.301 449.411 96.0528 440.723C95.84 431.929 101.549 427.177 110.201 425.759Z" fill="white"/>
<path d="M138.356 482.848C129.775 481.82 123.959 477.21 123.782 468.452C123.64 459.693 129.172 454.02 137.859 453.807C146.618 453.63 152.291 459.162 152.504 467.885C152.717 476.679 147.008 481.466 138.356 482.848Z" fill="white"/>
<path d="M164.95 429.766C172.361 430.12 176.439 433.524 176.368 440.616C176.297 446.999 172.715 450.758 166.297 450.899C159.312 451.077 155.376 447.247 155.376 440.226C155.376 433.737 159.277 430.581 164.95 429.766Z" fill="white"/>
<path d="M15.5238 440.049C14.4955 450.474 9.28286 456.325 -0.716717 456.147C-10.6808 455.97 -16.3544 450.119 -16.248 440.191C-16.1062 430.227 -10.2553 424.588 -0.29122 424.659C9.8502 424.73 14.6019 430.971 15.5238 440.049Z" fill="white"/>
<path d="M71.0186 440.617C70.0966 450.368 64.955 455.971 55.0618 456.325C45.6296 456.645 38.3251 449.056 39.0698 439.624C39.8853 429.802 45.6652 424.376 55.452 424.625C65.3807 424.873 70.3094 430.936 71.0186 440.617Z" fill="white"/>
<path d="M137.15 402.107C144.597 402.462 148.639 405.83 148.568 412.887C148.497 419.234 144.916 422.957 138.569 423.099C131.619 423.276 127.754 419.482 127.718 412.497C127.718 406.043 131.619 402.958 137.15 402.107Z" fill="white"/>
<path d="M82.6855 399.448C91.0894 400.086 95.9828 404.483 95.77 413.029C95.5927 421.61 90.5219 426.078 82.0825 425.829C74.2105 425.581 69.7073 420.936 69.6009 413.064C69.4591 404.483 74.2816 400.086 82.6855 399.448Z" fill="white"/>
<path d="M27.0135 398.136C35.5592 399.129 41.339 403.703 41.5163 412.462C41.6582 421.185 36.1976 426.823 27.51 427C18.7869 427.177 13.1487 421.681 12.936 412.994C12.7232 404.235 18.3968 399.483 27.0135 398.136Z" fill="white"/>
<path d="M120.307 384.625C119.775 390.37 116.761 394.341 111.052 394.625C104.669 394.944 100.662 391.079 100.733 384.696C100.804 378.952 104.598 375.335 110.343 375.3C116.194 375.229 119.314 379.023 120.307 384.625Z" fill="white"/>
<path d="M11.2332 384.768C10.7013 391.293 7.2262 395.938 0.52435 396.47C-6.85123 397.037 -11.7091 392.676 -11.9927 385.371C-12.241 378.031 -7.63123 373.421 -0.255655 373.457C6.48165 373.492 10.2403 377.889 11.2332 384.768Z" fill="white"/>
<path d="M54.5996 373.243C61.0533 373.669 65.7694 377.002 66.4077 383.739C67.1169 391.15 62.8263 396.044 55.5571 396.434C48.217 396.824 43.5364 392.285 43.43 384.91C43.3591 378.208 47.685 374.343 54.5996 373.243Z" fill="white"/>
<path d="M90.3075 356.968C89.421 362.286 86.6553 365.123 81.7974 364.591C77.6486 364.13 75.0246 361.294 75.3082 356.968C75.6274 352.074 78.7479 349.415 83.5704 349.876C87.861 350.266 89.7756 353.422 90.3075 356.968Z" fill="white"/>
<path d="M35.5596 357.251C34.8504 363.244 31.5173 365.939 26.163 365.407C21.305 364.91 18.7164 361.648 19.0356 356.79C19.3902 351.152 22.9361 348.564 28.3259 349.06C33.2193 349.521 35.4178 352.89 35.5596 357.251Z" fill="white"/>
</g>
<g opacity="0.75">
<path d="M851.521 904.042C650.529 904.042 487 740.513 487 539.521C487 338.529 650.529 175 851.521 175V179.545C653.035 179.545 491.587 341.035 491.587 539.478C491.587 737.964 653.078 899.412 851.521 899.412C911.496 899.412 970.876 884.376 1023.21 855.918L1025.37 859.91C972.363 888.836 912.218 904.042 851.521 904.042Z" fill="#37474F"/>
<path d="M851.522 868.873C815.418 868.873 779.951 863.054 746.056 851.628L748.987 843.005C781.948 854.134 816.437 859.783 851.564 859.783C1016.49 859.783 1153.48 736.223 1170.08 572.354L1179.17 573.289C1162.01 741.745 1021.17 868.873 851.522 868.873Z" fill="#37474F"/>
<path d="M679.03 820.111C580.828 759.626 522.212 654.713 522.212 539.521H531.345C531.345 651.527 588.346 753.51 683.83 812.338L679.03 820.111Z" fill="#37474F"/>
<path d="M1167.62 488.382C1155.69 414.093 1117.54 346.005 1060.16 296.692C1002.18 246.826 928.063 219.387 851.523 219.387C789.722 219.387 729.747 237.014 678.055 270.4C617.826 309.307 571.867 367.922 548.634 435.458L540.011 432.484C563.882 363.038 611.157 302.766 673.086 262.754C726.264 228.434 787.938 210.297 851.481 210.297C930.23 210.297 1006.43 238.543 1066.06 289.811C1125.06 340.526 1164.31 410.567 1176.58 486.98L1167.62 488.382Z" fill="#37474F"/>
<path d="M1012.16 714.943L1006 708.232C1053.19 664.992 1080.25 603.531 1080.25 539.563C1080.25 494.54 1067.17 450.96 1042.45 413.54L1050.05 408.528C1075.79 447.435 1089.38 492.756 1089.38 539.606C1089.34 606.079 1061.22 670.004 1012.16 714.943Z" fill="#37474F"/>
<path d="M851.522 777.381C720.359 777.381 613.662 670.684 613.662 539.521C613.662 486.427 630.779 436.222 663.103 394.341L670.323 399.906C639.232 440.214 622.794 488.466 622.794 539.521C622.794 665.629 725.414 768.249 851.522 768.249C873.906 768.249 896.036 765.021 917.231 758.65L919.864 767.4C897.777 774.068 874.756 777.381 851.522 777.381Z" fill="#37474F"/>
<path d="M851.521 736.52C819.494 736.52 787.681 728.662 759.562 713.796L761.686 709.761C789.167 724.288 820.216 731.975 851.478 731.975C937.83 731.975 1014.12 673.912 1037.01 590.746L1041.38 591.978C1018.02 677.098 939.911 736.52 851.521 736.52Z" fill="#37474F"/>
<path d="M993.812 360.446C952.993 327.953 903.765 310.793 851.52 310.793C805.69 310.793 761.473 324.3 723.628 349.87L718.531 342.31C757.863 315.72 803.863 301.703 851.52 301.703C905.889 301.703 957.071 319.543 999.504 353.353L993.812 360.446Z" fill="#37474F"/>
<path d="M712.247 678.881C675.039 641.673 654.523 592.19 654.523 539.563C654.523 430.954 742.871 342.564 851.522 342.564C960.131 342.564 1048.52 430.954 1048.52 539.563H1043.98C1043.98 433.46 957.667 347.151 851.565 347.151C745.462 347.151 659.153 433.46 659.153 539.563C659.153 590.958 679.159 639.295 715.56 675.653L712.247 678.881Z" fill="#37474F"/>
<path d="M851.521 662.061C783.943 662.061 728.98 607.099 728.98 539.521C728.98 471.943 783.943 416.98 851.521 416.98V426.112C788.998 426.112 738.112 476.998 738.112 539.521C738.112 602.044 788.998 652.929 851.521 652.929C914.044 652.929 964.929 602.044 964.929 539.521H974.062C974.019 607.099 919.056 662.061 851.521 662.061Z" fill="#37474F"/>
<path d="M851.523 600.43C817.925 600.43 790.614 573.119 790.614 539.521H795.159C795.159 570.57 820.431 595.843 851.481 595.843C882.53 595.843 907.803 570.57 907.803 539.521C907.803 508.472 882.53 483.199 851.481 483.199C834.236 483.199 818.18 490.929 807.391 504.436L803.824 501.591C815.462 486.979 832.834 478.612 851.481 478.612C885.078 478.612 912.39 505.923 912.39 539.521C912.39 573.119 885.078 600.43 851.523 600.43Z" fill="#37474F"/>
</g>
<g opacity="0.75">
<path d="M639.662 42.8526L637.121 40.9098C670.927 -3.47668 688.801 -56.5013 688.801 -112.455C688.801 -199.136 645.192 -278.882 572.141 -325.779L573.874 -328.469C647.852 -281.004 691.999 -200.242 691.999 -112.455C691.999 -55.8139 673.886 -2.10178 639.662 42.8526Z" fill="#37474F"/>
<path d="M435.515 144.03C294.076 144.03 179 28.9539 179 -112.485C179 -253.924 294.076 -369 435.515 -369V-365.802C295.84 -365.802 182.228 -252.16 182.228 -112.515C182.228 27.1605 295.869 140.772 435.515 140.772C477.72 140.772 519.506 130.191 556.33 110.165L557.854 112.974C520.552 133.329 478.228 144.03 435.515 144.03Z" fill="#37474F"/>
<path d="M435.516 119.281C410.11 119.281 385.152 115.186 361.3 107.146L363.362 101.078C386.557 108.909 410.827 112.885 435.546 112.885C551.609 112.885 648.004 25.9351 659.69 -89.3801L666.087 -88.7225C654.011 29.8207 554.897 119.281 435.516 119.281Z" fill="#37474F"/>
<path d="M314.133 84.9672C245.028 42.404 203.78 -31.424 203.78 -112.485H210.206C210.206 -33.6657 250.318 38.0999 317.511 79.4974L314.133 84.9672Z" fill="#37474F"/>
<path d="M548.559 10.9601L544.225 6.23747C577.433 -24.1904 596.473 -67.4411 596.473 -112.455C596.473 -144.139 587.266 -174.806 569.871 -201.139L575.221 -204.666C593.334 -177.286 602.899 -145.394 602.899 -112.425C602.869 -65.6477 583.082 -20.6634 548.559 10.9601Z" fill="#37474F"/>
<path d="M435.516 54.8985C343.216 54.8985 268.133 -20.1849 268.133 -112.485C268.133 -149.847 280.178 -185.177 302.924 -214.648L308.006 -210.733C286.126 -182.367 274.559 -148.412 274.559 -112.485C274.559 -23.7418 346.773 48.4722 435.516 48.4722C451.268 48.4722 466.84 46.2006 481.756 41.7171L483.609 47.8744C468.066 52.5671 451.866 54.8985 435.516 54.8985Z" fill="#37474F"/>
<path d="M435.515 26.1441C412.978 26.1441 390.59 20.6145 370.803 10.153L372.298 7.31352C391.636 17.5359 413.486 22.9459 435.485 22.9459C496.251 22.9459 549.933 -17.9136 566.044 -76.438L569.122 -75.5712C552.683 -15.6718 497.716 26.1441 435.515 26.1441Z" fill="#37474F"/>
</g>
<path fill-rule="evenodd" clip-rule="evenodd" d="M772.375 95.5946C771.43 97.0327 770.952 98.7276 771.004 100.448V100.447C771.004 105.555 774.252 108.11 778.419 108.125C779.967 108.214 781.513 107.937 782.932 107.315C784.35 106.693 785.602 105.743 786.585 104.544C787.322 105.805 788.286 106.919 789.427 107.829C789.61 107.931 789.819 107.976 790.027 107.956C790.236 107.936 790.435 107.853 790.596 107.718L790.611 107.726C791.598 106.859 793.388 105.296 794.405 104.46C794.492 104.375 794.561 104.274 794.609 104.162C794.656 104.05 794.682 103.931 794.682 103.809C794.683 103.688 794.66 103.566 794.615 103.454C794.569 103.341 794.501 103.24 794.415 103.153C793.239 101.924 792.574 100.294 792.552 98.5922V90.9213C792.552 90.6623 792.553 90.4051 792.555 90.1497V90.1494V90.149V90.1487V90.1483V90.148V90.1477C792.571 87.2039 792.587 84.5137 790.376 82.4553C788.261 80.7726 785.613 79.9045 782.912 80.0083C778.202 80.0083 772.95 81.7477 771.84 87.5349C771.819 87.6512 771.82 87.7718 771.844 87.8877C771.869 88.0036 771.917 88.1131 771.985 88.2098C772.054 88.3064 772.141 88.3873 772.242 88.449C772.343 88.5107 772.457 88.5512 772.573 88.5679L777.389 89.0797C777.609 89.041 777.811 88.9332 777.964 88.771C778.119 88.609 778.216 88.4008 778.243 88.179C778.438 87.2875 778.948 86.497 779.681 85.9539C780.414 85.4108 781.319 85.1529 782.226 85.227C782.758 85.2019 783.287 85.3047 783.769 85.5276C784.253 85.7505 784.674 86.0865 785.001 86.5072C785.545 87.6088 785.753 88.8468 785.6 90.066V90.6994C785.116 90.7557 784.608 90.8085 784.083 90.8628C781.498 91.1309 778.526 91.439 776.287 92.414C774.686 93.0457 773.321 94.1566 772.375 95.5946ZM895.616 80.2382C888.454 80.2382 884.482 86.3537 884.481 94.206C884.482 102.017 888.4 108.287 895.616 108.293C902.548 108.293 906.941 102.18 906.941 94.4787C906.961 86.5074 902.973 80.2382 895.616 80.2382ZM871.669 123.604C872.797 120.823 875.303 114.583 874.12 113.066C872.956 111.576 866.493 112.328 863.43 112.685L863.272 112.703C862.359 112.811 862.226 112.019 863.041 111.452C868.36 107.742 877.075 108.814 878.085 110.062C879.095 111.31 877.828 120.008 872.827 124.144C872.617 124.337 872.35 124.452 872.067 124.471C871.673 124.474 871.449 124.142 871.67 123.599L871.669 123.604ZM793.901 111.972C793.032 111.191 793.809 110.123 794.859 110.74C807.667 118.015 822.144 121.831 836.87 121.815C847.876 121.764 858.765 119.551 868.919 115.298C870.493 114.643 871.8 116.34 870.266 117.469C860.971 124.282 847.499 127.91 835.894 127.91C820.407 127.995 805.44 122.315 793.901 111.972ZM891.776 93.4123L891.776 93.5049V93.505C891.776 96.6267 891.775 103.084 895.617 103.084C899.468 103.084 899.651 97.774 899.636 94.5348C899.718 92.2777 899.468 90.02 898.895 87.8355C898.739 87.1061 898.326 86.4578 897.732 86.0088C897.137 85.5596 896.4 85.3414 895.657 85.3927C892.013 85.3941 891.776 90.3197 891.776 93.4069V93.4123ZM778.248 99.5931C778.248 101.722 779.354 103.157 781.256 103.157C781.975 103.127 782.672 102.904 783.274 102.512C783.876 102.119 784.363 101.571 784.68 100.925C785.477 99.3083 785.799 97.4973 785.609 95.7042V94.6431C782.024 94.6362 778.243 95.3961 778.243 99.5863L778.248 99.5931ZM837.292 95.5866C836.347 97.026 835.87 98.7229 835.926 100.444L835.921 100.438C835.921 105.552 839.16 108.11 843.33 108.125C844.876 108.213 846.42 107.935 847.838 107.313C849.257 106.691 850.509 105.742 851.491 104.544C852.23 105.804 853.193 106.918 854.332 107.829C854.518 107.929 854.727 107.973 854.936 107.952C855.145 107.932 855.343 107.848 855.505 107.714L855.513 107.722C856.504 106.856 858.297 105.29 859.303 104.456C859.389 104.372 859.459 104.272 859.508 104.161C859.556 104.05 859.582 103.93 859.584 103.809C859.586 103.688 859.564 103.568 859.519 103.455C859.476 103.343 859.409 103.24 859.324 103.153C858.154 101.921 857.492 100.292 857.472 98.5922V90.9213C857.472 90.6684 857.473 90.417 857.474 90.1675L857.474 90.1645C857.49 87.2142 857.505 84.5176 855.286 82.4553C853.173 80.7731 850.526 79.9049 847.829 80.0084C843.119 80.0084 837.851 81.7477 836.757 87.5349C836.733 87.6516 836.733 87.7725 836.757 87.8891C836.783 88.0057 836.831 88.1154 836.9 88.2124C836.969 88.3095 837.058 88.3918 837.159 88.453C837.262 88.5142 837.375 88.5526 837.494 88.568L842.289 89.0798C842.512 89.0434 842.717 88.9361 842.873 88.7738C843.029 88.6115 843.127 88.4025 843.156 88.179C843.349 87.2874 843.859 86.4972 844.59 85.9539C845.323 85.4106 846.227 85.1524 847.135 85.227C847.665 85.2013 848.194 85.3046 848.677 85.5276C849.159 85.7507 849.58 86.0861 849.906 86.5072C850.455 87.607 850.666 88.846 850.513 90.066V90.6928C850.043 90.7466 849.549 90.7971 849.04 90.8492C846.442 91.1153 843.451 91.4215 841.203 92.4033C839.603 93.0356 838.236 94.1472 837.292 95.5866ZM843.148 99.5931C843.148 101.722 844.261 103.157 846.166 103.157C846.884 103.125 847.58 102.902 848.18 102.509C848.781 102.116 849.266 101.57 849.583 100.925C850.38 99.3083 850.703 97.4973 850.513 95.7042V94.6431C846.923 94.6362 843.143 95.3961 843.143 99.5863L843.148 99.5931ZM862.569 102.545V106.212L862.563 106.207C862.57 106.436 862.659 106.654 862.815 106.822C862.971 106.989 863.181 107.096 863.409 107.12C863.519 107.119 863.627 107.09 863.724 107.035C866.381 105.669 869.324 104.955 872.312 104.951C875.299 104.947 878.245 105.653 880.906 107.013C881.04 107.067 881.186 107.087 881.328 107.072C881.472 107.056 881.61 107.004 881.728 106.922C881.846 106.84 881.944 106.73 882.009 106.601C882.075 106.472 882.108 106.329 882.103 106.184V102.327C882.094 102.038 882.008 101.755 881.855 101.509C881.702 101.264 881.486 101.063 881.231 100.927C878.368 99.4501 875.164 98.766 871.949 98.9464L880.391 86.983C881.177 85.906 881.621 85.2337 881.621 84.7151V81.6186C881.624 81.4955 881.6 81.3744 881.553 81.2605C881.506 81.1468 881.436 81.0429 881.348 80.9571C881.259 80.8715 881.155 80.8044 881.04 80.7608C880.924 80.7171 880.801 80.6977 880.678 80.7033H864.411C864.291 80.699 864.169 80.7203 864.057 80.7647C863.944 80.8092 863.841 80.8767 863.755 80.9626C863.669 81.0484 863.602 81.1502 863.557 81.2633C863.512 81.3762 863.492 81.4973 863.496 81.6186V85.2336C863.493 85.3562 863.516 85.4772 863.563 85.5905C863.609 85.7038 863.679 85.806 863.768 85.8911C863.855 85.9762 863.959 86.0434 864.074 86.0863C864.189 86.1291 864.312 86.1477 864.435 86.141H872.936L863.165 100.066C862.723 100.815 862.517 101.678 862.569 102.545ZM925.068 107.774C924.854 107.76 924.651 107.674 924.492 107.529C924.334 107.383 924.228 107.188 924.195 106.975V93.2586C924.195 93.0408 924.198 92.815 924.2 92.5838V92.5828C924.224 89.8828 924.255 86.455 921.11 86.455C920.49 86.4794 919.888 86.6837 919.378 87.0417C918.87 87.3998 918.474 87.8971 918.24 88.4743C917.623 89.992 917.354 91.6284 917.45 93.264V106.856C917.446 106.98 917.418 107.103 917.368 107.216C917.317 107.329 917.245 107.431 917.154 107.517C917.064 107.602 916.959 107.669 916.843 107.713C916.727 107.757 916.604 107.778 916.481 107.774H911.56C911.322 107.764 911.095 107.665 910.93 107.494C910.763 107.323 910.668 107.095 910.663 106.856L910.658 81.5933C910.686 81.3618 910.8 81.1491 910.976 80.9972C911.154 80.8455 911.381 80.7658 911.614 80.7728H916.204C916.408 80.7809 916.605 80.8531 916.765 80.9812C916.925 81.1093 917.038 81.2857 917.092 81.4837V85.3418H917.17C918.549 81.8919 920.502 80.2422 923.915 80.2422C925.055 80.1891 926.19 80.4368 927.205 80.9599C928.221 81.4829 929.082 82.2637 929.703 83.2237C931 85.2469 931 88.6359 931 91.0794V91.087V106.986C930.96 107.211 930.843 107.414 930.668 107.561C930.493 107.707 930.271 107.786 930.045 107.785L925.068 107.774ZM825.08 107.48C825.244 107.65 825.467 107.751 825.704 107.764H830.641C830.764 107.767 830.887 107.745 831.002 107.701C831.115 107.657 831.22 107.589 831.309 107.504C831.398 107.42 831.469 107.319 831.518 107.206C831.569 107.094 831.596 106.973 831.599 106.85L831.605 90.9119C831.605 90.5245 831.611 90.1292 831.618 89.73C831.657 87.3419 831.699 84.815 830.358 82.9965C829.554 81.9879 828.498 81.2082 827.297 80.738C826.096 80.2676 824.793 80.1228 823.518 80.317C822.243 80.5112 821.042 81.0379 820.035 81.8445C819.029 82.6511 818.252 83.7089 817.784 84.9115C816.4 81.7271 814.458 80.2341 811.358 80.2341C809.907 80.1781 808.478 80.6073 807.298 81.4542C806.117 82.3012 805.252 83.5177 804.838 84.9115H804.753V81.616C804.734 81.3887 804.631 81.1764 804.464 81.0199C804.299 80.8635 804.082 80.7736 803.855 80.7674H799.24C799.117 80.7641 798.994 80.7861 798.881 80.8302C798.766 80.8743 798.66 80.9406 798.572 81.0253C798.483 81.1099 798.412 81.2109 798.362 81.3233C798.312 81.4356 798.286 81.556 798.283 81.6788V106.934C798.305 107.156 798.408 107.364 798.57 107.517C798.733 107.669 798.946 107.757 799.169 107.764H804.124C804.247 107.767 804.369 107.745 804.484 107.701C804.598 107.657 804.704 107.59 804.792 107.506C804.881 107.421 804.952 107.32 805.002 107.208C805.051 107.095 805.078 106.975 805.082 106.852V93.4604C805.082 93.3516 805.082 93.2411 805.082 93.1295C805.077 90.2433 805.07 86.4992 808.491 86.4992C811.656 86.4992 811.603 89.853 811.561 92.5778C811.556 92.8817 811.552 93.1777 811.552 93.4604V106.85C811.557 107.087 811.653 107.313 811.82 107.483C811.985 107.653 812.209 107.753 812.446 107.764H817.391C817.513 107.767 817.636 107.745 817.751 107.701C817.866 107.657 817.97 107.591 818.058 107.506C818.147 107.421 818.218 107.319 818.269 107.206C818.318 107.094 818.345 106.973 818.348 106.85V93.4604C818.24 91.8333 818.395 90.1994 818.806 88.6213C819.044 88.0249 819.45 87.5112 819.976 87.1433C820.501 86.7753 821.124 86.5698 821.765 86.5512C822.438 86.4553 823.121 86.6292 823.667 87.0363C824.212 87.4436 824.574 88.0506 824.676 88.7242C824.84 90.2972 824.885 91.8804 824.812 93.4604V106.85C824.819 107.086 824.915 107.311 825.08 107.48Z" fill="white"/>
<path opacity="0.4" d="M883 556.911C909.509 556.911 931 535.42 931 508.911C931 482.4 909.509 460.911 883 460.911C856.491 460.911 835 482.4 835 508.911C835 535.42 856.491 556.911 883 556.911Z" fill="white"/>
<path opacity="0.859468" d="M823.267 556.911C849.777 556.911 871.267 535.42 871.267 508.911C871.267 482.4 849.777 460.911 823.267 460.911C796.757 460.911 775.267 482.4 775.267 508.911C775.267 535.42 796.757 556.911 823.267 556.911Z" fill="white"/>
</g>
<defs>
<clipPath id="clip0_743_3662">
<rect width="1011" height="637.5" rx="44" fill="white"/>
</clipPath>
</defs>
</svg>
