<svg width="352" height="223" viewBox="0 0 352 223" fill="none" xmlns="http://www.w3.org/2000/svg">
<path d="M351.104 21.3009L351.198 201.332C351.208 212.907 341.81 222.305 330.225 222.315L21.5184 222.483C19.5927 222.483 17.7193 222.221 15.9506 221.729C7.06525 219.301 0.534658 211.18 0.524193 201.52L0.430001 21.4893C0.419536 9.91421 9.80725 0.505555 21.4032 0.505555L330.12 0.338104C334.254 0.338104 338.137 1.54166 341.381 3.63479C347.231 7.33965 351.104 13.8598 351.104 21.3009Z" fill="url(#paint0_linear_3_504)"/>
<path opacity="0.53" d="M243.569 222.368L21.5184 222.483C19.5927 222.483 17.7193 222.221 15.9506 221.729L114.454 123.122C117.395 120.17 120.984 118.265 124.762 117.46C131.523 115.932 138.922 117.815 144.197 123.111L243.569 222.368Z" fill="url(#paint1_linear_3_504)"/>
<path opacity="0.53" d="M96.662 80.6936L0.513725 176.947L0.430001 21.4997C0.419536 9.9142 9.81772 0.51602 21.3928 0.505555L46.1441 0.495087L96.6515 50.9502C104.878 59.1448 104.888 72.4781 96.662 80.6936Z" fill="url(#paint2_linear_3_504)"/>
<path opacity="0.53" d="M182.219 0.411377L152.025 30.6467C143.82 38.8728 130.487 38.8832 122.282 30.6677L92.0466 0.463705L182.219 0.411377Z" fill="url(#paint3_linear_3_504)"/>
<path opacity="0.53" d="M351.104 21.3009L351.187 182.085C345.546 182.305 339.822 180.275 335.51 175.952L207.776 48.3547C199.55 40.1496 199.54 26.8058 207.755 18.5903L225.945 0.379964L330.11 0.327637C334.244 0.327637 338.126 1.53119 341.371 3.62433C347.231 7.33965 351.104 13.8598 351.104 21.3009Z" fill="url(#paint4_linear_3_504)"/>
<path d="M295.029 60.0863C302.572 60.0863 308.686 53.9715 308.686 46.4285C308.686 38.8856 302.572 32.7708 295.029 32.7708C287.486 32.7708 281.371 38.8856 281.371 46.4285C281.371 53.9715 287.486 60.0863 295.029 60.0863Z" fill="white"/>
<path d="M313.249 60.0763C305.714 60.0763 299.592 53.9538 299.581 46.429C299.571 38.9042 305.704 32.7713 313.228 32.7608C320.764 32.7608 326.886 38.8832 326.897 46.4081C326.907 53.9329 320.785 60.0658 313.249 60.0763ZM313.239 37.3134C308.215 37.3134 304.134 41.4055 304.134 46.4185C304.134 51.4316 308.226 55.5237 313.239 55.5237C318.262 55.5237 322.344 51.4316 322.344 46.4185C322.344 41.3845 318.262 37.3029 313.239 37.3134Z" fill="white"/>
<defs>
<linearGradient id="paint0_linear_3_504" x1="38.8743" y1="248.503" x2="312.757" y2="-25.6793" gradientUnits="userSpaceOnUse">
<stop stop-color="#00252E"/>
<stop offset="1" stop-color="#83F8A6"/>
</linearGradient>
<linearGradient id="paint1_linear_3_504" x1="15.9255" y1="169.748" x2="243.539" y2="169.623" gradientUnits="userSpaceOnUse">
<stop stop-color="#02CAFD"/>
<stop offset="1" stop-color="#83F8A6"/>
</linearGradient>
<linearGradient id="paint2_linear_3_504" x1="-40.5418" y1="135.935" x2="70.4754" y2="24.7967" gradientUnits="userSpaceOnUse">
<stop stop-color="#02CAFD"/>
<stop offset="1" stop-color="#83F8A6"/>
</linearGradient>
<linearGradient id="paint3_linear_3_504" x1="114.6" y1="22.996" x2="159.665" y2="-22.1183" gradientUnits="userSpaceOnUse">
<stop stop-color="#02CAFD"/>
<stop offset="1" stop-color="#83F8A6"/>
</linearGradient>
<linearGradient id="paint4_linear_3_504" x1="546.502" y1="213.161" x2="155.214" y2="-18.1457" gradientUnits="userSpaceOnUse">
<stop stop-color="#02CAFD"/>
<stop offset="1" stop-color="#83F8A6"/>
</linearGradient>
</defs>
</svg>
